<?xml version="1.0" encoding="UTF-8"?>
<svg id="Camada_1" xmlns="http://www.w3.org/2000/svg" version="1.1" viewBox="0 0 780 400">
  <!-- Generator: Adobe Illustrator 29.3.1, SVG Export Plug-In . SVG Version: 2.1.0 Build 151)  -->
  <defs>
    <style>
      @import url('https://fonts.googleapis.com/css2?family=Atkinson+Hyperlegible');
      .st0, .st1 {
        fill: #fff;
      }

      .st0, .st2, .st3, .st4 {
        stroke: #007958;
      }

      .st5 {
        stroke: #000;
      }

      .st5, .st6 {
        fill: none;
      }

      .st7 {
        font-family: Atkinson Hyperlegible, sans-serif;
        font-size: 11px;
        isolation: isolate;
      }

      .st8, .st9, .st3 {
        stroke-dasharray: 4;
      }

      .st8, .st10 {
        stroke: #f2d454;
      }

      .st11, .st9, .st1 {
        stroke: #004e93;
      }

      .st12 {
        fill: #007958;
      }

      .st13 {
        fill: #f2d454;
      }

      .st14 {
        fill: #004e93;
      }

      .st4 {
        stroke-width: 2px;
      }

      .st15 {
        stroke: #fff;
      }
    </style>
  </defs>
  <g id="viz">
    <g id="y_axis">
      <path class="st5" d="M24,370h6V10h-6"/>
      <path class="st5" d="M30,370h-6"/>
      <path class="st5" d="M30,346h-6"/>
      <path class="st5" d="M30,322h-6"/>
      <path class="st5" d="M30,298h-6"/>
      <path class="st5" d="M30,274h-6"/>
      <path class="st5" d="M30,250h-6"/>
      <path class="st5" d="M30,226h-6"/>
      <path class="st5" d="M30,202h-6"/>
      <path class="st5" d="M30,178h-6"/>
      <path class="st5" d="M30,154h-6"/>
      <path class="st5" d="M30,130h-6"/>
      <path class="st5" d="M30,106h-6"/>
      <path class="st5" d="M30,82h-6"/>
      <path class="st5" d="M30,58h-6"/>
      <path class="st5" d="M30,34h-6"/>
      <path class="st5" d="M30,10h-6"/>
    </g>
    <g id="x_axis">
      <path class="st5" d="M30,376v-6h740v6"/>
      <path class="st5" d="M93,370v6"/>
      <path class="st5" d="M216,370v6"/>
      <path class="st5" d="M339,370v6"/>
      <path class="st5" d="M462,370v6"/>
      <path class="st5" d="M585,370v6"/>
      <path class="st5" d="M708,370v6"/>
    </g>
    <g id="boxplots">
      <g id="diseñador">
        <path class="st8" d="M93,10v276"/>
        <path class="st10" d="M83,10h20"/>
        <path class="st10" d="M83,286h20"/>
        <path class="st13" d="M83,106h20v84h-20v-84Z"/>
        <path class="st15" d="M83,130h20"/>
      </g>
      <g id="diseñadora">
        <path class="st8" d="M216,10v300"/>
        <path class="st10" d="M206,10h20"/>
        <path class="st10" d="M206,310h20"/>
        <path class="st13" d="M206,52h20v120h-20V52Z"/>
        <path class="st15" d="M206,130h20"/>
      </g>
      <g id="diseñador_v_y_m">
        <path class="st9" d="M339,70v210"/>
        <path class="st11" d="M329,70h20"/>
        <path class="st11" d="M329,280h20"/>
        <path class="st14" d="M329,130h20v60h-20v-60Z"/>
        <path class="st15" d="M329,154h20"/>
        <path class="st1" d="M339,311c-.6,0-1-.4-1-1s.4-1,1-1,1,.4,1,1-.4,1-1,1Z"/>
        <path class="st1" d="M339,311c-.6,0-1-.4-1-1s.4-1,1-1,1,.4,1,1-.4,1-1,1Z"/>
        <path class="st1" d="M339,371c-.6,0-1-.4-1-1s.4-1,1-1,1,.4,1,1-.4,1-1,1Z"/>
      </g>
      <g id="diseñadora_v_y_m">
        <path class="st9" d="M462,10v345"/>
        <path class="st11" d="M452,10h20"/>
        <path class="st11" d="M452,355h20"/>
        <path class="st14" d="M452,70h20v114h-20v-114Z"/>
        <path class="st15" d="M452,130h20"/>
        <path class="st1" d="M462,371c-.6,0-1-.4-1-1s.4-1,1-1,1,.4,1,1-.4,1-1,1Z"/>
        <path class="st1" d="M462,371c-.6,0-1-.4-1-1s.4-1,1-1,1,.4,1,1-.4,1-1,1Z"/>
      </g>
      <g id="diseñador_i_y_s">
        <path class="st3" d="M585,37v216"/>
        <path class="st2" d="M575,37h20"/>
        <path class="st2" d="M575,253h20"/>
        <path class="st12" d="M575,118h20v54h-20v-54Z"/>
        <path class="st15" d="M575,142h20"/>
        <path class="st0" d="M585,311c-.6,0-1-.4-1-1s.4-1,1-1,1,.4,1,1-.4,1-1,1Z"/>
        <path class="st0" d="M585,35c-.6,0-1-.4-1-1s.4-1,1-1,1,.4,1,1-.4,1-1,1Z"/>
      </g>
      <g id="diseñadora_i_y_s">
        <path class="st3" d="M708,10v360"/>
        <path class="st2" d="M698,10h20"/>
        <path id="Layer_copy" class="st4" d="M698,370h20"/>
        <path class="st2" d="M698,370h20"/>
        <path class="st12" d="M698,52h20v138h-20V52Z"/>
        <path class="st15" d="M698,130h20"/>
      </g>
    </g>
  </g>
  <rect class="st6" x="5" width="775" height="400"/>
  <text class="st7" transform="translate(726.1 373)"><tspan x="0" y="0">4,0</tspan></text>
  <text class="st7" transform="translate(5 351.4)"><tspan x="0" y="0">4,2</tspan></text>
  <text class="st7" transform="translate(5 326.2)"><tspan x="0" y="0">4,4</tspan></text>
  <text class="st7" transform="translate(5 302.6)"><tspan x="0" y="0">4,6</tspan></text>
  <text class="st7" transform="translate(5 278.5)"><tspan x="0" y="0">4,8</tspan></text>
  <text class="st7" transform="translate(5 254.4)"><tspan x="0" y="0">5,0</tspan></text>
  <text class="st7" transform="translate(5 229.2)"><tspan x="0" y="0">5,2</tspan></text>
  <text class="st7" transform="translate(5 205.6)"><tspan x="0" y="0">5,4</tspan></text>
  <text class="st7" transform="translate(5 182.5)"><tspan x="0" y="0">5,6</tspan></text>
  <text class="st7" transform="translate(5 160)"><tspan x="0" y="0">5,8</tspan></text>
  <text class="st7" transform="translate(304.4 134.7)"><tspan x="0" y="0">6,0</tspan></text>
  <text class="st7" transform="translate(5 109.1)"><tspan x="0" y="0">6,2</tspan></text>
  <text class="st7" transform="translate(5 86)"><tspan x="0" y="0">6,4</tspan></text>
  <text class="st7" transform="translate(5 62.1)"><tspan x="0" y="0">6,6</tspan></text>
  <text class="st7" transform="translate(5 35.9)"><tspan x="0" y="0">6,8</tspan></text>
  <text class="st7" transform="translate(480.2 14.8)"><tspan x="0" y="0">7,0</tspan></text>
  <text class="st7" transform="translate(68.6 390.1)"><tspan x="0" y="0">Diseñador</tspan></text>
  <text class="st7" transform="translate(189.5 390)"><tspan x="0" y="0">Diseñadora</tspan></text>
  <text class="st7" transform="translate(299.2 390)"><tspan x="0" y="0">Diseñador V y M</tspan></text>
  <text class="st7" transform="translate(419.4 390)"><tspan x="0" y="0">Diseñadora V y M</tspan></text>
  <text class="st7" transform="translate(548.1 390)"><tspan x="0" y="0">Diseñador I y S</tspan></text>
  <text class="st7" transform="translate(669 390)"><tspan x="0" y="0">Diseñadora I y S</tspan></text>
  <text class="st7" transform="translate(232.1 14.8)"><tspan x="0" y="0">7,0</tspan></text>
  <text class="st7" transform="translate(109.7 290.8)"><tspan x="0" y="0">4,7</tspan></text>
  <text class="st7" transform="translate(5 133.6)"><tspan x="0" y="0">6,0</tspan></text>
  <text class="st7" transform="translate(676.7 190)"><tspan x="0" y="0">5,5</tspan></text>
  <text class="st7" transform="translate(62 109.1)"><tspan x="0" y="0">6,2</tspan></text>
  <text class="st7" transform="translate(108.8 14.8)"><tspan x="0" y="0">7,0</tspan></text>
  <text class="st7" transform="translate(232.7 311)"><tspan x="0" y="0">4,5</tspan></text>
  <text class="st7" transform="translate(232.7 133.1)"><tspan x="0" y="0">6,0</tspan></text>
  <text class="st7" transform="translate(179.8 173.6)"><tspan x="0" y="0">5,65</tspan></text>
  <text class="st7" transform="translate(179.4 58)"><tspan x="0" y="0">6,65</tspan></text>
  <text class="st7" transform="translate(480.8 74.4)"><tspan x="0" y="0">6,5</tspan></text>
  <text class="st7" transform="translate(300.1 283)"><tspan x="0" y="0">4,75</tspan></text>
  <text class="st7" transform="translate(360.7 160)"><tspan x="0" y="0">5,8</tspan></text>
  <text class="st7" transform="translate(62.4 192.1)"><tspan x="0" y="0">5,5</tspan></text>
  <text class="st7" transform="translate(420.3 131.6)"><tspan x="0" y="0">6,0</tspan></text>
  <text class="st7" transform="translate(725.6 14.8)"><tspan x="0" y="0">7,0</tspan></text>
  <text class="st7" transform="translate(479.3 359.4)"><tspan x="0" y="0">4,125</tspan></text>
  <text class="st7" transform="translate(726.3 131.6)"><tspan x="0" y="0">6,0</tspan></text>
  <text class="st7" transform="translate(420.3 184)"><tspan x="0" y="0">5,55</tspan></text>
  <text class="st7" transform="translate(357.3 74.4)"><tspan x="0" y="0">6,5</tspan></text>
  <text class="st7" transform="translate(601.9 37.5)"><tspan x="0" y="0">6,77</tspan></text>
  <text class="st7" transform="translate(606.8 256)"><tspan x="0" y="0">4,98</tspan></text>
  <text class="st7" transform="translate(606.4 145)"><tspan x="0" y="0">5,9</tspan></text>
  <text class="st7" transform="translate(549 173.6)"><tspan x="0" y="0">5,65</tspan></text>
  <text class="st7" transform="translate(552.5 121)"><tspan x="0" y="0">6,1</tspan></text>
  <text class="st7" transform="translate(5 14.8)"><tspan x="0" y="0">7,0</tspan></text>
  <text class="st7" transform="translate(5 373)"><tspan x="0" y="0">4,0</tspan></text>
  <text class="st7" transform="translate(109.3 131.6)"><tspan x="0" y="0">6,0</tspan></text>
  <text class="st7" transform="translate(304.8 192.1)"><tspan x="0" y="0">5,5</tspan></text>
  <text class="st7" transform="translate(669.9 54.2)"><tspan x="0" y="0">6,65</tspan></text>
</svg>